Coordinates
version=1
nRows=5
nColumns=46
inDegrees=yes

Units are S.I. units (second, meters, Newtons, ...)
Angles are in degrees.

endheader
time	pelvis_tilt	pelvis_list	pelvis_rotation	pelvis_tx	pelvis_ty	pelvis_tz	bb_angle	bb_tx	bb_ty	bb_tz	hip_flexion_r	hip_adduction_r	hip_rotation_r	knee_angle_r	knee_angle_r_beta	ankle_angle_r	subtalar_angle_r	mtp_angle_r	crank_angle_r	hip_flexion_l	hip_adduction_l	hip_rotation_l	knee_angle_l	knee_angle_l_beta	ankle_angle_l	subtalar_angle_l	mtp_angle_l	crank_angle_l	lumbar_extension	lumbar_bending	lumbar_rotation	arm_flex_r	arm_add_r	arm_rot_r	elbow_flex_r	pro_sup_r	wrist_flex_r	wrist_dev_r	arm_flex_l	arm_add_l	arm_rot_l	elbow_flex_l	pro_sup_l	wrist_flex_l	wrist_dev_l
      2.50500000	    -19.93790950	     -2.64453476	     -0.39335586	      0.04598662	      1.09594575	     -0.26120889	      0.00000000	      0.50000000	      0.00000000	      0.25000000	     82.87413384	     -4.17067984	     -2.73093709	     78.88475539	      1.37679871	      9.51990837	     -6.74347930	      0.00000000	      0.00000000	     56.79026216	     -9.91528103	      0.32993106	     73.36740412	      1.28050277	     10.95377993	     -3.02370653	      0.00000000	      0.00000000	    -47.36110234	      1.84144878	      5.30343995	     89.75143760	     -8.28111960	     34.08943248	     29.94589798	     21.39202415	      0.00000000	      0.00000000	     89.76712522	     -3.34701903	     13.23724940	     53.42491609	     24.12272533	      0.00000000	      0.00000000
      2.51000000	    -19.94478200	     -2.64643619	     -0.39231638	      0.04599492	      1.09589921	     -0.26120452	      0.00000000	      0.50000000	      0.00000000	      0.25000000	     82.89780591	     -4.17240355	     -2.73375827	     78.91995328	      1.37741303	      9.54064410	     -6.73949751	      0.00000000	      0.00000000	     56.78893143	     -9.91705906	      0.32212064	     73.34900852	      1.28018170	     10.97288068	     -3.00903056	      0.00000000	      0.00000000	    -47.34690242	      1.83682018	      5.26352219	     89.75189808	     -8.20482073	     33.92862869	     29.49305775	     23.53340617	      0.00000000	      0.00000000	     89.76714378	     -3.42801347	     13.24596270	     53.15007924	     26.03835902	      0.00000000	      0.00000000
      2.51500000	    -19.94306162	     -2.66076538	     -0.38724960	      0.04601701	      1.09589279	     -0.26124521	      0.00000000	      0.50000000	      0.00000000	      0.25000000	     82.90253715	     -4.17788081	     -2.74909516	     78.93836497	      1.37773437	      9.54119012	     -6.75943019	      0.00000000	      0.00000000	     56.77922483	     -9.91700587	      0.32947419	     73.33006605	      1.27985109	     10.96272979	     -3.04681882	      0.00000000	      0.00000000	    -47.34914116	      1.84846452	      5.29085276	     89.75196743	     -8.32859455	     34.30294315	     29.82191055	     21.86615696	      0.00000000	      0.00000000	     89.76725359	     -3.32408423	     13.10660434	     53.44264092	     24.42818892	      0.00000000	      0.00000000
      2.52000000	    -19.95981777	     -2.65788630	     -0.41835180	      0.04601912	      1.09585014	     -0.26118962	      0.00000000	      0.50000000	      0.00000000	      0.25000000	     82.93735009	     -4.14158586	     -2.72671604	     78.96453619	      1.37819115	      9.56681693	     -6.70646163	      0.00000000	      0.00000000	     56.78428499	     -9.93926966	      0.31432186	     73.31090111	      1.27951660	     10.95577297	     -3.06491239	      0.00000000	      0.00000000	    -47.32784695	      1.83398427	      5.42359519	     89.74757835	     -8.19578556	     33.07772131	     29.55937128	     23.63569843	      0.00000000	      0.00000000	     89.76912205	     -3.20225335	     13.11478434	     52.97172533	     26.06107369	      0.00000000	      0.00000000
      2.52500000	    -19.91929775	     -2.61170983	     -0.44042976	      0.04607447	      1.09591758	     -0.26114539	      0.00000000	      0.50000000	      0.00000000	      0.25000000	     82.91842179	     -4.13265363	     -2.68244158	     78.99457343	      1.37871540	      9.55225874	     -6.75825257	      0.00000000	      0.00000000	     56.69940207	     -9.93596914	      0.25078220	     73.27612593	      1.27890966	     11.00161195	     -2.99323413	      0.00000000	      0.00000000	    -47.38373387	      1.76062684	      5.22783573	     89.75154559	     -8.08313211	     33.60816319	     29.37400590	     24.16854782	      0.00000000	      0.00000000	     89.76668193	     -3.42772484	     13.12617264	     53.14411804	     26.65127487	      0.00000000	      0.00000000
